<svg width="34" height="30" viewBox="0 0 34 30" fill="none" xmlns="http://www.w3.org/2000/svg">
<path d="M0 2.08333C0 1.5308 0.219494 1.0009 0.610195 0.610195C1.0009 0.219494 1.5308 0 2.08333 0H31.25C31.8025 0 32.3324 0.219494 32.7231 0.610195C33.1138 1.0009 33.3333 1.5308 33.3333 2.08333C33.3333 2.63587 33.1138 3.16577 32.7231 3.55647C32.3324 3.94717 31.8025 4.16667 31.25 4.16667H2.08333C1.5308 4.16667 1.0009 3.94717 0.610195 3.55647C0.219494 3.16577 0 2.63587 0 2.08333Z" fill="white"/>
<path d="M0 27.0833C0 26.5308 0.219494 26.0009 0.610195 25.6102C1.0009 25.2195 1.5308 25 2.08333 25H31.25C31.8025 25 32.3324 25.2195 32.7231 25.6102C33.1138 26.0009 33.3333 26.5308 33.3333 27.0833C33.3333 27.6359 33.1138 28.1658 32.7231 28.5565C32.3324 28.9472 31.8025 29.1667 31.25 29.1667H2.08333C1.5308 29.1667 1.0009 28.9472 0.610195 28.5565C0.219494 28.1658 0 27.6359 0 27.0833Z" fill="white"/>
<path d="M2.08333 12.5C1.5308 12.5 1.0009 12.7195 0.610195 13.1102C0.219494 13.5009 0 14.0308 0 14.5833C0 15.1359 0.219494 15.6658 0.610195 16.0565C1.0009 16.4472 1.5308 16.6667 2.08333 16.6667H18.75C19.3025 16.6667 19.8324 16.4472 20.2231 16.0565C20.6138 15.6658 20.8333 15.1359 20.8333 14.5833C20.8333 14.0308 20.6138 13.5009 20.2231 13.1102C19.8324 12.7195 19.3025 12.5 18.75 12.5H2.08333Z" fill="white"/>
</svg>
